<?xml version="1.0" encoding="UTF-8" standalone="no"?>
<!-- Created with Inkscape (http://www.inkscape.org/) -->

<svg
   version="1.1"
   id="svg7575"
   xml:space="preserve"
   width="306.78366"
   height="143.69066"
   viewBox="0 0 306.78366 143.69066"
   sodipodi:docname="shutterstock_598753136.eps"
   inkscape:export-filename="/home/migmartri/Desktop/path7639.png"
   inkscape:export-xdpi="158.8"
   inkscape:export-ydpi="158.8"
   inkscape:version="1.1.2 (0a00cf5339, 2022-02-04)"
   xmlns:inkscape="http://www.inkscape.org/namespaces/inkscape"
   xmlns:sodipodi="http://sodipodi.sourceforge.net/DTD/sodipodi-0.dtd"
   xmlns="http://www.w3.org/2000/svg"
   xmlns:svg="http://www.w3.org/2000/svg"><defs
     id="defs7579"><clipPath
       clipPathUnits="userSpaceOnUse"
       id="clipPath7591"><path
         d="M 0,0 H 4813 V 4813 H 0 Z"
         id="path7589" /></clipPath><clipPath
       clipPathUnits="userSpaceOnUse"
       id="clipPath7597"><path
         d="M 4813.31,0 H 0 V 4813.33 H 4813.31 V 0 M 2406.65,723.43 c -608.42,0 -1101.64,-37.301 -1101.64,-83.309 0,-46.019 493.22,-83.32 1101.64,-83.32 608.43,0 1101.65,37.301 1101.65,83.32 0,46.008 -493.22,83.309 -1101.65,83.309 m 0.01,1958.54 c -651.58,0 -1179.79,-39.95 -1179.79,-89.23 0,-49.28 528.21,-89.23 1179.79,-89.23 651.57,0 1179.78,39.95 1179.78,89.23 0,49.28 -528.21,89.23 -1179.78,89.23"
         id="path7595" /></clipPath><radialGradient
       fx="0.0596423"
       fy="0.0261571"
       cx="0"
       cy="0"
       r="1"
       gradientUnits="userSpaceOnUse"
       gradientTransform="matrix(5843.04,0,0,-5843.04,2215.08,2514.43)"
       spreadMethod="pad"
       id="radialGradient7609"><stop
         style="stop-opacity:1;stop-color:#ffffff"
         offset="0"
         id="stop7599" /><stop
         style="stop-opacity:1;stop-color:#ffffff"
         offset="0.265205"
         id="stop7601" /><stop
         style="stop-opacity:1;stop-color:#ffffff"
         offset="0.48556325"
         id="stop7603" /><stop
         style="stop-opacity:1;stop-color:#d1d3d4"
         offset="0.667896"
         id="stop7605" /><stop
         style="stop-opacity:1;stop-color:#d1d3d4"
         offset="1"
         id="stop7607" /></radialGradient><clipPath
       clipPathUnits="userSpaceOnUse"
       id="clipPath7619"><path
         d="m 2406.65,556.801 c -608.42,0 -1101.64,37.301 -1101.64,83.32 0,46.008 493.22,83.309 1101.64,83.309 608.43,0 1101.65,-37.301 1101.65,-83.309 0,-46.019 -493.22,-83.32 -1101.65,-83.32"
         id="path7617" /></clipPath><clipPath
       clipPathUnits="userSpaceOnUse"
       id="clipPath7633"><path
         d="m 2406.66,2503.51 c -651.58,0 -1179.79,39.95 -1179.79,89.23 0,49.28 528.21,89.23 1179.79,89.23 651.57,0 1179.78,-39.95 1179.78,-89.23 0,-49.28 -528.21,-89.23 -1179.78,-89.23"
         id="path7631" /></clipPath></defs><sodipodi:namedview
     id="namedview7577"
     pagecolor="#ffffff"
     bordercolor="#666666"
     borderopacity="1.0"
     inkscape:pageshadow="2"
     inkscape:pageopacity="0"
     inkscape:pagecheckerboard="true"
     showgrid="false"
     inkscape:zoom="1.3602934"
     inkscape:cx="-99.610864"
     inkscape:cy="205.47038"
     inkscape:window-width="2504"
     inkscape:window-height="1376"
     inkscape:window-x="1496"
     inkscape:window-y="548"
     inkscape:window-maximized="1"
     inkscape:current-layer="g7583" /><g
     id="g7581"
     inkscape:groupmode="layer"
     inkscape:label="ink_ext_XXXXXX"
     transform="matrix(1.3333333,0,0,-1.3333333,-167.496,526.22265)"><g
       id="g7583"
       transform="scale(0.1)"><path
         d="m 3399.53,3026.82 c -210.09,-210.09 -551.93,-210.09 -762.02,0 l -162.83,162.8 -13.41,13.41 -0.03,0.03 150.3,150.3 176.27,-176.24 c 61.36,-61.35 141.28,-93.13 221.83,-95.29 86.47,-2.32 173.72,29.43 239.58,95.29 127.19,127.22 127.19,334.2 -0.03,461.42 -127.18,127.21 -334.19,127.21 -461.38,0 L 2176.06,3026.82 C 2074.29,2925.05 1939,2868.99 1795.07,2868.99 c -143.93,0 -279.25,56.06 -381.03,157.83 -101.77,101.77 -157.82,237.1 -157.82,381.03 0,143.92 56.05,279.22 157.82,380.99 105.08,105.08 243.02,157.6 381.03,157.6 137.98,0 275.98,-52.56 380.99,-157.57 l 175.98,-175.97 0.03,-0.04 -150.3,-150.33 -176.01,176.01 c -60.4,60.4 -138.83,92.12 -218.13,95.13 -87.68,3.4 -176.47,-28.32 -243.25,-95.13 -61.65,-61.62 -95.59,-143.57 -95.59,-230.69 0,-87.16 33.94,-169.08 95.56,-230.73 63.61,-63.6 147.16,-95.39 230.72,-95.39 83.52,0 167.08,31.79 230.69,95.39 l 611.72,611.75 c 101.77,101.77 237.1,157.8 381.02,157.8 143.93,0 279.26,-56.06 381.03,-157.83 210.09,-210.09 210.09,-551.93 0,-762.02"
         style="fill:#1f1f1f;fill-opacity:1;fill-rule:nonzero;stroke:none"
         id="path7639"
         inkscape:export-filename="/home/migmartri/Desktop/path7639.png"
         inkscape:export-xdpi="150.32292"
         inkscape:export-ydpi="150.32292" /></g></g></svg>
